# xmcd
#
# Track frame offsets: 
#        150
#        10122
#        22878
#        36762
#        49530
#        67914
#        80971
#        97334
#        110033
#        125201
#        142906
#        153946
#        170301
#        183525
#        202730
#        217212
#        233600
#        247788
#        262769
#        276671
#        288825
#
# Disc length: 4080 seconds
#
# Revision: 5
# Processed by: cddbd v1.5.2PL0 Copyright (c) Steve Scherf et al.
# Submitted via: ExactAudioCopyFreeDBPlugin 1.0
#
DISCID=260fee15
DTITLE=Anne Murray - Special Collection
DYEAR=1990
DGENRE=Country
TTITLE0=Snowbird
TTITLE1=Destiny
TTITLE2=Danny's Song
TTITLE3=A Love Song
TTITLE4=You Won't See Me
TTITLE5=He Thinks I Still Care
TTITLE6=You Needed Me
TTITLE7=I Just Fall In Love Again
TTITLE8=Shadows In The Moonlight
TTITLE9=A Broken Hearted Me
TTITLE10=Daydream Believer
TTITLE11=Time Don't Run Out On Me
TTITLE12=Just Another Woman In Love
TTITLE13=Now and Forever (You And Me)
TTITLE14=I'd Fall In Love Tonight
TTITLE15=If I Ever Fall In Love Again (with Kenny Rogers)
TTITLE16=A Little Good News
TTITLE17=When I Fall
TTITLE18=Another Sleepless Night
TTITLE19=Blessed Are The Believers
TTITLE20=Nobody Loves Me Like You Do (with Dave Loggins)
EXTD=
EXTT0=
EXTT1=
EXTT2=
EXTT3=
EXTT4=
EXTT5=
EXTT6=
EXTT7=
EXTT8=
EXTT9=
EXTT10=
EXTT11=
EXTT12=
EXTT13=
EXTT14=
EXTT15=Murray, Anne/Rogers, Kenny
EXTT16=
EXTT17=
EXTT18=
EXTT19=
EXTT20=Murray, Anne/Loggins, Dave
PLAYORDER=
